<?xml version="1.0" standalone="no"?>
<!DOCTYPE svg PUBLIC "-//W3C//DTD SVG 20010904//EN"
 "http://www.w3.org/TR/2001/REC-SVG-20010904/DTD/svg10.dtd">
<svg version="1.0" xmlns="http://www.w3.org/2000/svg"
 width="80.000000pt" height="30.000000pt" viewBox="0 0 80.000000 30.000000"
 preserveAspectRatio="xMidYMid meet">
<metadata>
Created by potrace 1.16, written by Peter Selinger 2001-2019
</metadata>
<g transform="translate(0.000000,30.000000) scale(0.040000,-0.015000)"
fill="#000000" stroke="none">
<path d="M0 1000 l0 -1000 1000 0 1000 0 0 1000 0 1000 -1000 0 -1000 0 0
-1000z m592 316 c62 -25 156 -100 178 -141 13 -25 11 -28 -45 -85 -33 -33 -66
-60 -75 -60 -9 0 -34 19 -55 41 -69 72 -138 87 -209 46 -134 -76 -81 -287 72
-287 52 0 86 16 131 64 19 20 42 36 50 36 20 0 131 -110 131 -130 0 -17 -109
-130 -126 -130 -6 0 -21 12 -35 26 -48 53 -100 84 -141 84 -32 0 -47 -8 -98
-55 -33 -30 -67 -55 -76 -55 -26 0 -123 100 -151 157 -70 144 -27 333 101 438
93 76 236 97 348 51z m493 -231 c0 -18 -8 -20 -62 -23 -59 -3 -63 -4 -63 -27
0 -22 5 -24 53 -27 44 -3 52 -6 52 -23 0 -17 -8 -20 -52 -23 -48 -3 -53 -5
-53 -27 0 -23 4 -24 63 -27 56 -3 62 -5 65 -26 3 -22 2 -23 -90 -20 l-93 3 -3
100 c-4 152 -8 146 96 143 79 -3 87 -5 87 -23z m245 0 c0 -22 -4 -25 -40 -25
l-39 0 -3 -97 c-3 -93 -4 -98 -25 -101 -23 -3 -23 -1 -23 97 l0 101 -39 0
c-39 0 -53 12 -43 38 3 8 34 12 108 12 l104 0 0 -25z m197 10 c35 -15 35 -16
18 -34 -14 -16 -22 -18 -43 -10 -54 21 -102 -11 -102 -67 0 -59 57 -92 109
-64 14 7 23 5 35 -9 15 -16 15 -20 2 -30 -9 -7 -33 -15 -55 -18 -105 -14 -176
80 -131 172 33 68 95 90 167 60z"/>
</g>
</svg>
