
<svg version="1.0" xmlns="http://www.w3.org/2000/svg"
 width="80.000000pt" height="30.000000pt" viewBox="0 0 80.000000 30.000000"
 preserveAspectRatio="xMidYMid meet">
<metadata>
Created by potrace 1.16, written by Peter Selinger 2001-2019
</metadata>
<g transform="translate(0.000000,30.000000) scale(0.022535,-0.021127)"
fill="#532e8f" stroke="none">
<path d="M310 1291 c-52 -16 -87 -41 -116 -82 l-29 -42 -3 -409 c-3 -358 -1
-415 13 -459 9 -27 21 -47 26 -44 5 4 6 0 3 -8 -6 -17 53 -70 72 -63 7 3 14 0
17 -7 3 -9 339 -12 1453 -12 l1449 0 38 23 c20 13 50 45 65 70 l27 47 0 410
c0 226 -3 426 -8 446 -8 39 -45 85 -92 115 -28 18 -72 19 -1460 21 -786 1
-1441 -2 -1455 -6z m508 -68 c10 -20 8 -155 -2 -172 -9 -13 -45 -14 -66 -2
-10 7 -13 28 -12 81 2 52 0 70 -9 65 -6 -4 -3 4 6 19 21 31 69 36 83 9z m-289
-177 c53 -56 60 -73 39 -94 -15 -15 -64 -16 -73 -2 -4 6 -11 7 -17 4 -6 -4 -8
-3 -5 3 6 10 -47 65 -55 57 -3 -2 -5 2 -6 9 -1 6 -3 23 -6 37 -5 35 0 40 38
40 27 0 43 -10 85 -54z m624 33 c7 -28 -10 -65 -40 -84 -13 -9 -21 -20 -18
-24 3 -5 -12 -16 -33 -24 -31 -13 -40 -13 -57 -2 -25 16 -29 70 -6 88 14 11
15 10 1 -8 -14 -20 -14 -20 7 -1 13 10 20 23 16 29 -3 5 -2 7 4 4 6 -4 21 5
33 18 31 33 85 35 93 4z m887 -159 c0 -153 1 -160 20 -160 13 0 20 -7 20 -19
0 -15 -9 -20 -42 -22 -66 -6 -88 0 -88 22 0 12 7 19 20 19 19 0 20 7 20 140 0
133 -1 140 -20 140 -13 0 -20 7 -20 20 0 17 7 20 45 20 l45 0 0 -160z m-458
140 c43 -12 43 -13 52 -62 7 -37 6 -38 -23 -38 -23 0 -29 4 -25 15 16 41 -63
61 -106 27 -36 -29 -13 -58 61 -79 33 -9 71 -27 85 -40 23 -21 25 -29 20 -71
-8 -69 -9 -72 -14 -67 -3 3 -13 -2 -22 -10 -25 -22 -71 -29 -151 -22 -26 2
-84 47 -61 47 7 0 12 13 12 31 0 26 3 30 22 27 14 -2 24 -12 28 -28 5 -22 12
-25 54 -28 56 -4 76 9 76 50 0 24 -6 32 -35 44 -19 8 -48 16 -65 17 -46 6 -80
43 -80 89 0 51 14 77 53 93 39 17 70 18 119 5z m1188 -20 c0 -13 -7 -20 -20
-20 -19 0 -20 -7 -20 -130 0 -123 1 -130 20 -130 13 0 20 -7 20 -20 0 -14 -7
-20 -21 -20 -13 0 -18 -4 -13 -12 6 -10 4 -10 -7 0 -7 6 -30 12 -51 12 -31 0
-38 4 -38 20 0 13 7 20 20 20 19 0 20 7 20 130 0 123 -1 130 -20 130 -13 0
-20 7 -20 20 0 18 7 20 65 20 58 0 65 -2 65 -20z m343 -32 c4 -33 3 -55 -4
-59 -13 -7 -49 0 -47 10 0 3 0 18 -1 34 -1 24 -5 27 -36 27 l-35 0 0 -130 0
-130 29 0 c20 0 30 -6 34 -20 5 -19 0 -20 -93 -20 -93 0 -98 1 -93 20 4 14 14
20 34 20 l29 0 0 130 0 130 -35 0 c-31 0 -35 -3 -41 -34 -6 -36 -22 -49 -44
-36 -9 5 -10 22 -5 59 l7 51 148 0 147 0 6 -52z m-2272 -48 c20 -6 53 -21 72
-34 19 -13 39 -21 43 -18 4 4 4 2 1 -4 -3 -6 4 -21 16 -35 12 -13 24 -33 25
-44 2 -11 7 -23 11 -28 11 -11 3 -117 -11 -152 -7 -16 -29 -57 -51 -90 -24
-38 -37 -68 -34 -82 2 -14 0 -20 -6 -16 -6 4 -8 -2 -5 -14 5 -19 1 -21 -89
-22 -52 -1 -101 -5 -109 -8 -20 -7 -44 15 -44 41 0 11 -7 32 -14 46 -8 14 -22
40 -31 57 -10 18 -22 30 -28 26 -5 -3 -7 -1 -3 5 3 6 -3 29 -15 52 -31 59 -29
146 4 203 14 24 33 49 41 56 9 7 13 18 9 24 -3 6 -1 7 6 3 6 -4 18 -2 26 4 42
35 123 47 186 30z m1041 -20 c36 -28 51 -71 44 -122 -4 -24 -8 -53 -9 -65 -1
-11 -5 -19 -8 -17 -8 5 -69 -19 -69 -27 0 -3 -18 -3 -40 1 -22 4 -40 5 -40 2
0 -2 -7 1 -15 8 -8 7 -15 9 -15 6 0 -4 -6 -1 -14 6 -8 7 -11 17 -8 22 3 5 -1
7 -9 4 -11 -4 -14 7 -13 56 1 104 36 145 125 146 31 0 54 -6 71 -20z m328 0
c0 -11 -7 -20 -15 -20 -8 0 -15 -3 -15 -7 0 -13 45 -113 51 -113 3 0 15 27 27
60 17 49 19 60 7 60 -8 0 -15 9 -15 20 0 18 7 20 59 20 54 0 59 -2 54 -20 -3
-11 -11 -20 -18 -20 -11 0 -50 -81 -50 -105 0 -5 -6 -16 -13 -23 -7 -8 -10
-18 -7 -23 4 -5 2 -9 -3 -9 -5 0 -12 -9 -15 -20 -3 -11 -13 -20 -22 -20 -10 0
-13 -5 -9 -12 6 -10 5 -10 -8 -1 -8 7 -19 9 -23 5 -5 -4 -5 -2 -2 5 4 6 -12
55 -35 108 -32 73 -46 95 -58 92 -13 -3 -16 1 -12 19 4 22 9 24 63 24 52 0 59
-2 59 -20z m341 10 c24 -13 49 -61 49 -95 0 -25 -1 -25 -86 -25 -84 0 -85 0
-78 -22 11 -37 25 -48 60 -48 23 0 38 6 46 20 16 25 55 26 60 3 2 -10 -5 -26
-15 -35 -10 -9 -17 -21 -14 -25 3 -4 -22 -9 -55 -11 -43 -2 -67 1 -85 13 -14
10 -22 12 -19 6 4 -6 4 -11 1 -11 -13 0 -35 72 -35 116 0 51 22 97 54 113 28
13 92 14 117 1z m-2085 -187 c10 -24 12 -63 2 -57 -4 3 -8 0 -8 -5 0 -7 -33
-11 -89 -11 -93 0 -101 4 -101 49 0 32 22 41 106 41 68 0 83 -3 90 -17z m817
-4 c5 -9 7 -28 3 -42 -6 -25 -9 -26 -92 -29 -83 -3 -87 -2 -98 22 -15 31 -10
57 12 63 9 3 50 4 91 4 56 -2 76 -6 84 -18z m279 -189 c-2 -25 -8 -49 -13 -54
-5 -6 -4 -15 2 -22 6 -7 9 -30 7 -51 l-3 -38 -55 0 -55 0 2 50 c1 28 2 73 2
102 1 57 3 58 76 58 l40 0 -3 -45z m356 41 c17 -1 15 -31 -3 -31 -12 0 -15
-17 -15 -90 0 -83 -1 -90 -20 -90 -23 0 -22 -2 -21 103 l0 77 -44 0 c-43 0
-45 -1 -45 -30 0 -25 4 -30 25 -30 16 0 25 -6 25 -15 0 -9 -9 -15 -25 -15 -21
0 -25 -5 -25 -30 0 -27 3 -30 30 -30 20 0 30 -5 30 -15 0 -11 -13 -15 -52 -15
l-53 0 3 97 c1 54 4 103 6 108 3 8 96 11 184 6z m125 0 c4 -1 7 -17 7 -36 0
-28 -4 -35 -20 -35 -13 0 -20 7 -20 20 0 11 -7 20 -15 20 -12 0 -15 -15 -15
-75 0 -60 3 -75 15 -75 8 0 15 7 15 15 0 8 9 15 21 15 16 0 20 -5 17 -27 -3
-25 -7 -28 -47 -31 -24 -2 -48 1 -53 6 -13 13 -12 180 1 196 8 10 50 13 94 7z
m-936 -137 c56 -58 59 -64 43 -95 -18 -33 -52 -22 -112 37 -61 59 -67 73 -43
97 8 8 11 17 8 20 -3 4 7 4 23 1 17 -3 49 -27 81 -60z m-539 44 c22 -22 12
-45 -47 -104 -33 -32 -57 -62 -54 -67 3 -5 -4 -4 -16 2 -12 7 -26 9 -31 6 -6
-4 -7 1 -3 11 4 10 2 15 -4 11 -6 -4 -10 8 -10 28 0 19 2 33 5 31 9 -10 44 33
37 45 -5 7 -4 10 3 5 6 -3 23 5 38 19 29 27 63 32 82 13z m328 -139 c11 -9 10
-91 -1 -109 -4 -6 -15 -10 -25 -8 -11 2 -25 -5 -32 -15 -8 -10 -27 -19 -45
-19 -32 -1 -118 35 -130 55 -13 21 -6 88 11 100 19 14 204 11 222 -4z"/>
<path d="M1785 908 c-46 -25 -60 -82 -29 -126 19 -28 74 -30 97 -4 20 22 23
91 5 114 -18 22 -49 29 -73 16z"/>
</g>
</svg>
