<?xml version="1.0" standalone="no"?>
<!DOCTYPE svg PUBLIC "-//W3C//DTD SVG 20010904//EN"
 "http://www.w3.org/TR/2001/REC-SVG-20010904/DTD/svg10.dtd">
<svg version="1.0" xmlns="http://www.w3.org/2000/svg"
 width="80.000000pt" height="30.000000pt" viewBox="0 0 80.000000 30.000000"
 preserveAspectRatio="xMidYMid meet">
<metadata>
Created by potrace 1.16, written by Peter Selinger 2001-2019
</metadata>
<g transform="translate(0.000000,30.000000) scale(0.023392,-0.019868)"
fill="#532e8f" stroke="none">
<path d="M335 1325 c-5 -2 -23 -6 -38 -9 -17 -4 -25 -11 -21 -18 4 -7 3 -8 -5
-4 -19 12 -59 -20 -83 -67 -23 -41 -23 -50 -26 -417 -4 -433 0 -493 33 -526
13 -12 21 -25 18 -27 -9 -9 55 -46 98 -57 31 -8 457 -10 1464 -8 1396 3 1420
3 1450 23 29 19 85 73 85 82 0 2 -6 1 -12 -2 -7 -4 -4 1 7 10 19 15 20 28 20
448 l0 432 -27 47 c-15 25 -45 57 -65 70 l-38 23 -1425 2 c-784 1 -1429 0
-1435 -2z m1605 -365 c0 -146 2 -160 18 -160 9 0 22 -10 28 -23 10 -22 8 -23
-35 -23 -26 0 -55 -4 -66 -8 -17 -7 -17 -6 -5 4 13 10 11 11 -7 7 -19 -4 -23
-1 -23 19 0 17 6 24 20 24 19 0 20 7 20 140 l0 140 -24 0 c-19 0 -23 4 -19 20
4 16 14 20 49 20 l44 0 0 -160z m-446 136 c27 -11 34 -21 39 -51 3 -21 4 -41
2 -46 -9 -13 -45 3 -45 21 0 10 -7 23 -16 31 -13 10 -19 10 -36 0 -11 -7 -17
-8 -13 -2 9 15 -8 14 -24 -1 -11 -10 -12 -10 -7 -1 5 9 2 11 -8 7 -8 -3 -17
-12 -20 -20 -12 -30 14 -54 75 -71 80 -22 109 -50 109 -103 0 -32 -6 -48 -29
-70 -16 -16 -27 -31 -24 -34 2 -2 -1 -7 -8 -12 -7 -4 -10 -3 -5 4 4 7 -11 9
-49 5 -75 -8 -139 12 -131 41 3 12 6 31 6 44 0 36 44 26 48 -10 3 -27 6 -28
56 -28 61 0 79 14 74 57 -2 19 -8 28 -20 27 -10 -1 -16 1 -13 5 4 8 -87 35
-119 36 -17 0 -20 9 -24 57 -2 31 2 66 8 78 24 44 111 63 174 36z m1176 -16
c0 -13 -7 -20 -20 -20 -19 0 -20 -7 -20 -130 0 -123 1 -130 20 -130 11 0 20
-7 20 -15 0 -8 0 -18 0 -21 0 -3 -29 -6 -65 -6 -36 0 -65 3 -65 6 0 3 0 13 0
21 0 8 9 15 20 15 19 0 20 7 20 131 0 126 -1 131 -20 126 -16 -4 -20 0 -20 19
0 23 3 24 65 24 58 0 65 -2 65 -20z m340 -2 c0 -13 3 -39 6 -59 6 -32 4 -36
-16 -34 -25 2 -40 21 -40 53 0 19 -5 22 -35 22 l-35 0 0 -130 0 -130 29 0 c20
0 30 -6 34 -20 3 -11 0 -20 -6 -21 -13 -1 -168 0 -179 0 -3 1 -4 10 -1 21 4
14 14 20 34 20 l29 0 0 129 0 129 -35 0 c-31 0 -35 -3 -41 -34 -4 -20 -12 -34
-21 -34 -8 0 -11 -5 -7 -12 4 -7 -1 -6 -11 3 -14 14 -16 26 -10 68 l7 51 149
0 c148 0 149 0 149 -22z m-1232 -94 c37 -26 53 -69 50 -134 -2 -32 -5 -57 -8
-55 -3 2 -14 -3 -25 -12 -20 -14 -20 -14 -1 -29 11 -8 15 -14 9 -14 -7 0 -14
4 -17 8 -3 5 -35 7 -72 6 -63 -3 -68 -2 -94 27 -16 16 -31 46 -35 67 -8 50 18
118 54 137 35 19 111 19 139 -1z m332 -4 c0 -12 -7 -20 -16 -20 -17 0 -17 -1
14 -77 9 -24 19 -43 23 -43 3 0 14 23 25 52 10 29 21 56 22 60 2 4 -3 8 -12 8
-9 0 -16 8 -16 20 0 18 7 20 55 20 48 0 55 -2 55 -20 0 -11 -6 -20 -13 -20 -7
0 -32 -46 -56 -103 -40 -95 -45 -102 -71 -102 -16 -1 -27 3 -24 7 3 4 -15 50
-38 103 -32 70 -47 94 -59 92 -12 -3 -15 2 -11 19 4 22 9 24 63 24 52 0 59 -2
59 -20z m341 10 c24 -13 49 -61 49 -95 0 -23 -4 -25 -42 -26 -24 -1 -62 -1
-86 0 -41 2 -43 0 -37 -21 12 -37 25 -48 61 -48 23 0 38 6 46 20 17 26 58 27
58 1 0 -10 -7 -24 -15 -31 -8 -7 -12 -17 -8 -23 3 -6 1 -7 -5 -3 -7 4 -12 3
-12 -3 0 -6 -7 -8 -15 -5 -8 4 -15 2 -15 -3 0 -6 -19 -7 -47 -3 -27 5 -52 5
-58 2 -5 -3 -7 -2 -4 2 4 4 -4 19 -17 33 -45 49 -27 174 30 202 28 13 92 14
117 1z"/>
<path d="M1690 948 c0 -5 -4 -7 -9 -3 -15 9 -41 -36 -41 -70 0 -46 25 -75 64
-75 43 0 66 26 66 77 0 39 -28 82 -43 66 -4 -3 -7 -2 -7 4 0 5 -7 10 -15 10
-8 0 -15 -4 -15 -9z"/>
</g>
</svg>
