<?xml version="1.0" standalone="no"?>
<!DOCTYPE svg PUBLIC "-//W3C//DTD SVG 20010904//EN"
 "http://www.w3.org/TR/2001/REC-SVG-20010904/DTD/svg10.dtd">
<svg version="1.0" xmlns="http://www.w3.org/2000/svg"
 width="150.000000pt" height="77.157803pt" viewBox="0 0 150.000000 77.157803"
 preserveAspectRatio="xMidYMid meet">
<metadata>
Created by potrace 1.16, written by Peter Selinger 2001-2019
</metadata>
<g transform="translate(0.000000,77.157803) scale(0.013078,-0.013078)"
fill="#000000" stroke="none">
<path d="M0 2950 l0 -2950 5735 0 5735 0 0 2950 0 2950 -5735 0 -5735 0 0
-2950z m3305 1677 c306 -58 522 -153 775 -341 98 -73 461 -420 511 -490 32
-44 37 -91 15 -134 -8 -15 -144 -156 -303 -314 l-289 -288 -49 0 c-31 0 -59 7
-75 18 -14 9 -110 100 -214 202 -212 208 -274 256 -389 301 -299 115 -621 56
-846 -156 -214 -202 -296 -450 -246 -740 36 -202 135 -366 296 -485 253 -188
557 -226 818 -103 101 48 164 95 281 208 235 229 264 255 297 261 18 3 45 3
60 0 19 -5 132 -111 331 -309 290 -290 302 -304 302 -340 0 -21 -6 -50 -14
-65 -25 -47 -588 -600 -619 -607 -65 -16 -83 -4 -306 215 -118 116 -240 228
-273 250 -195 130 -454 134 -665 9 -35 -21 -137 -112 -261 -234 -221 -217
-255 -241 -333 -229 -110 18 -384 239 -538 434 -309 390 -442 844 -391 1328
54 504 266 899 660 1228 256 215 574 351 916 394 104 13 456 5 549 -13z m2849
-1188 c24 -19 26 -27 26 -92 0 -40 -4 -77 -8 -83 -20 -31 -55 -34 -361 -34
l-311 0 0 -140 0 -139 261 -3 c260 -3 261 -3 280 -27 14 -17 19 -39 19 -86 0
-47 -5 -69 -19 -86 -19 -24 -20 -24 -280 -27 l-261 -3 0 -144 0 -145 293 0
c302 0 359 -6 377 -40 5 -10 10 -47 10 -82 0 -51 -4 -69 -20 -86 -21 -22 -22
-22 -440 -22 -476 0 -452 -4 -465 82 -3 24 -5 286 -3 584 3 579 2 564 53 584
11 5 201 9 421 9 391 1 402 0 428 -20z m1245 -3 c42 -38 36 -172 -9 -196 -11
-6 -98 -10 -204 -10 l-186 0 0 -492 c0 -491 0 -492 -22 -515 -19 -20 -31 -23
-99 -23 -61 0 -82 4 -100 19 l-24 19 -3 496 -3 496 -185 0 c-183 0 -185 0
-209 25 -21 20 -25 34 -25 88 0 64 9 86 45 106 14 7 166 10 511 8 464 -2 493
-3 513 -21z m923 -1 c79 -20 182 -68 213 -99 41 -41 34 -78 -26 -142 -62 -65
-79 -67 -175 -21 -66 31 -74 32 -194 32 -123 0 -126 0 -188 -34 -190 -103
-254 -333 -150 -540 91 -180 328 -240 550 -139 44 20 75 28 91 24 13 -3 45
-31 71 -62 53 -64 59 -101 24 -135 -35 -33 -161 -89 -241 -106 -101 -21 -290
-13 -372 16 -203 73 -355 242 -401 447 -24 109 -16 275 18 366 81 218 258 367
482 408 67 12 226 4 298 -15z m1016 -557 c14 -14 16 -77 2 -98 -7 -11 -35 -16
-115 -18 l-105 -4 0 -267 c0 -194 -3 -270 -12 -279 -7 -7 -33 -12 -58 -12 -25
0 -51 5 -58 12 -9 9 -12 85 -12 280 l0 268 -89 0 c-123 0 -141 8 -141 63 0 24
5 48 12 55 17 17 559 17 576 0z m359 -220 l233 -233 0 221 c0 158 3 223 12
232 16 16 83 15 97 -2 8 -9 11 -108 9 -342 -3 -294 -5 -329 -19 -329 -9 0
-119 100 -245 223 l-229 222 -5 -222 c-3 -123 -7 -224 -8 -225 -7 -9 -90 -1
-100 9 -9 9 -12 96 -12 329 0 175 3 324 6 333 3 9 11 16 17 16 7 0 117 -105
244 -232z m581 -309 c55 -19 68 -110 19 -144 -31 -22 -93 -19 -117 5 -37 37
-22 122 23 140 30 12 39 12 75 -1z m-7421 -1114 c27 -19 37 -59 22 -88 -15
-29 -28 -37 -59 -37 -42 0 -70 26 -70 66 0 61 58 94 107 59z m217 -6 c50 -40
21 -119 -44 -119 -65 0 -94 79 -44 119 15 12 34 21 44 21 10 0 29 -9 44 -21z
m201 -4 c30 -30 31 -54 4 -89 -39 -50 -119 -22 -119 42 0 66 69 94 115 47z"/>
</g>
</svg>
