<?xml version="1.0" standalone="no"?>
<!DOCTYPE svg PUBLIC "-//W3C//DTD SVG 20010904//EN"
 "http://www.w3.org/TR/2001/REC-SVG-20010904/DTD/svg10.dtd">
<svg version="1.0" xmlns="http://www.w3.org/2000/svg"
 width="50.000000pt" height="40.000000pt" viewBox="0 0 50.000000 40.000000"
 preserveAspectRatio="xMidYMid meet">
<metadata>
Created by potrace 1.16, written by Peter Selinger 2001-2019
</metadata>
<g transform="translate(0.000000,40.000000) scale(0.016181,-0.021053)"
fill="#000000" stroke="none">
<path d="M600 1341 c-72 -22 -128 -71 -154 -133 -20 -48 -23 -430 -4 -475 20
-46 57 -91 96 -115 35 -21 52 -23 267 -29 185 -5 235 -4 257 8 47 23 50 100 5
125 -15 9 -87 14 -240 16 -250 4 -247 3 -247 99 l0 52 241 3 c239 3 241 3 260
27 24 30 24 62 0 92 -19 24 -22 24 -262 29 l-243 5 2 55 c2 44 8 59 28 78 24
21 31 22 238 22 209 0 213 0 234 23 29 31 28 72 -3 102 l-24 25 -213 -1 c-117
0 -224 -4 -238 -8z"/>
<path d="M1253 1340 c-45 -18 -55 -72 -22 -113 20 -26 23 -26 152 -29 l132 -3
5 -288 c5 -271 6 -290 24 -303 29 -21 80 -18 102 7 18 19 19 42 22 305 l3 284
130 0 c116 0 131 2 149 20 25 25 26 71 1 101 l-19 24 -329 2 c-180 1 -338 -2
-350 -7z"/>
<path d="M2276 1033 l-78 -76 75 -75 c43 -43 80 -72 86 -68 22 14 10 48 -36
97 l-46 50 46 47 c46 47 54 65 39 89 -5 8 -33 -13 -86 -64z"/>
<path d="M2457 1104 c-17 -18 -4 -54 38 -99 l45 -50 -45 -45 c-42 -42 -57 -81
-37 -94 5 -3 42 29 83 70 l74 74 -76 75 c-41 42 -78 73 -82 69z"/>
</g>
</svg>
