<?xml version="1.0" standalone="no"?>
<!DOCTYPE svg PUBLIC "-//W3C//DTD SVG 20010904//EN"
 "http://www.w3.org/TR/2001/REC-SVG-20010904/DTD/svg10.dtd">
<svg version="1.0" xmlns="http://www.w3.org/2000/svg"
 width="80.000000pt" height="30.000000pt" viewBox="0 0 80.000000 30.000000"
 preserveAspectRatio="xMidYMid meet">
<metadata>
Created by potrace 1.16, written by Peter Selinger 2001-2019
</metadata>
<g transform="translate(0.000000,30.000000) scale(0.035556,-0.013333)"
fill="#000000" stroke="none">
<path d="M633 1518 c-29 -33 -35 -57 -22 -95 12 -37 27 -48 100 -69 37 -11 49
-20 49 -34 0 -31 -36 -45 -66 -25 -13 8 -24 22 -24 29 0 21 -27 38 -50 31 -17
-5 -20 -15 -20 -66 0 -63 15 -84 44 -60 10 8 21 8 40 1 71 -27 147 7 161 71
14 61 -25 104 -110 125 -63 15 -70 54 -9 54 26 0 36 -6 46 -27 9 -20 21 -28
38 -28 24 0 25 3 25 55 0 46 -3 55 -19 58 -10 2 -22 -2 -27 -9 -6 -11 -11 -11
-21 -1 -6 6 -35 12 -63 12 -41 0 -56 -5 -72 -22z"/>
<path d="M1137 1533 c-13 -13 -7 -44 11 -50 27 -10 32 -24 32 -100 0 -84 -6
-103 -31 -103 -14 0 -19 -7 -19 -25 0 -26 0 -26 78 -23 71 3 77 5 80 26 3 16
-2 22 -16 22 -28 0 -32 17 -32 146 l0 114 -48 0 c-27 0 -52 -3 -55 -7z"/>
<path d="M934 1455 c-17 -9 -37 -28 -45 -42 -16 -30 -16 -111 0 -142 31 -56
140 -67 189 -18 28 29 41 105 23 149 -21 55 -108 83 -167 53z"/>
<path d="M1664 1454 c-33 -16 -64 -69 -64 -110 0 -42 27 -92 59 -108 74 -39
187 2 165 59 -8 21 -41 19 -71 -5 -23 -18 -29 -19 -47 -6 -12 7 -22 21 -24 29
-3 13 9 17 70 19 68 3 73 5 76 26 6 38 -17 79 -53 96 -41 20 -71 20 -111 0z"/>
<path d="M1287 1453 c-15 -14 -6 -44 16 -52 17 -7 30 -29 51 -90 l29 -82 50 3
51 3 30 79 c23 58 37 81 54 87 17 6 22 15 20 31 -3 21 -9 23 -70 26 -66 3 -68
2 -68 -22 0 -13 6 -26 12 -28 10 -4 8 -19 -6 -64 l-19 -59 -20 58 c-18 56 -18
59 -1 71 10 8 15 20 11 30 -5 12 -20 16 -70 16 -35 0 -67 -3 -70 -7z"/>
<path d="M1053 1036 c-74 -33 -93 -123 -43 -197 16 -24 30 -52 30 -61 0 -15
10 -18 65 -18 61 0 65 1 65 23 0 13 11 38 25 57 34 46 41 90 20 133 -30 63
-100 90 -162 63z m107 -23 c52 -30 67 -109 30 -156 -12 -14 -25 -40 -31 -57
-10 -28 -14 -30 -60 -30 -40 0 -49 3 -49 18 0 9 -11 33 -24 52 -33 50 -39 75
-26 115 23 68 97 95 160 58z"/>
<path d="M1337 973 c-4 -3 -7 -17 -7 -30 0 -16 -8 -27 -25 -33 -30 -11 -33
-40 -5 -47 18 -5 20 -14 20 -77 0 -94 15 -116 76 -116 58 0 86 26 82 78 -2 29
-8 38 -25 40 -17 3 -22 -2 -25 -25 -2 -17 -9 -28 -18 -28 -12 0 -15 13 -15 60
l0 60 38 3 c33 3 38 6 35 25 -2 17 -12 23 -38 27 -31 4 -35 9 -38 38 -3 26 -8
32 -26 32 -12 0 -26 -3 -29 -7z"/>
</g>
</svg>
